<svg xmlns="http://www.w3.org/2000/svg" viewBox="0 0 48 48"><defs><style>.cls-1{fill:#fff;}</style></defs><title>Instagram Icon</title><g id="Layer_2" data-name="Layer 2"><g id="Instagram_Icon" data-name="Instagram Icon"><path class="cls-1" d="M24,11.7c-6.84,0-8.88,0-10.56,1.74S11.7,17.16,11.7,24s0,8.88,1.74,10.56S17.16,36.3,24,36.3s8.88,0,10.56-1.74S36.3,30.84,36.3,24s0-8.88-1.74-10.56S30.84,11.7,24,11.7Zm0,20A7.68,7.68,0,1,1,31.68,24,7.68,7.68,0,0,1,24,31.68Zm8-13.86a1.85,1.85,0,0,1-1.8-1.8,1.81,1.81,0,0,1,1.8-1.8,1.77,1.77,0,0,1,1.8,1.8A1.81,1.81,0,0,1,32,17.82Z"/><circle class="cls-1" cx="24" cy="24" r="4.98"/><path class="cls-1" d="M24,0A24,24,0,1,0,48,24,24,24,0,0,0,24,0ZM36.48,36.48C34,39,31.2,39,24,39s-10,0-12.48-2.52S9,31.14,9,24s0-10,2.52-12.48S16.8,9,24,9s10,0,12.48,2.52S39,16.86,39,24,39,34,36.48,36.48Z"/></g></g></svg>