<svg xmlns="http://www.w3.org/2000/svg" viewBox="0 0 226.91 88.05"><defs><style>.cls-1{fill:#fff;}</style></defs><title>Asset 4</title><g id="Layer_2" data-name="Layer 2"><g id="Logo_-_Vertical" data-name="Logo - Vertical"><path class="cls-1" d="M19.5,75.57H15.34V87H0V41.51H21.9a27,27,0,0,1,11,2.08,16.14,16.14,0,0,1,7.21,6,16.34,16.34,0,0,1,2.54,9.1,16.14,16.14,0,0,1-2.21,8.52A15.64,15.64,0,0,1,34.06,73l9.55,14H27.23Zm6.11-20.83a6.83,6.83,0,0,0-4.68-1.4H15.34V64h5.59a6.78,6.78,0,0,0,4.68-1.4,5,5,0,0,0,1.56-3.93A5,5,0,0,0,25.61,54.74Z"/><path class="cls-1" d="M70.65,85a23.33,23.33,0,0,1,0-41.47,28,28,0,0,1,13.2-3.06A28,28,0,0,1,97,43.53a22.76,22.76,0,0,1,12.48,20.73A22.78,22.78,0,0,1,97,85a28.09,28.09,0,0,1-13.19,3A28.16,28.16,0,0,1,70.65,85ZM89,74.24a9.94,9.94,0,0,0,3.67-4,14,14,0,0,0,0-12,10.07,10.07,0,0,0-3.67-4,10.31,10.31,0,0,0-10.34,0,10.07,10.07,0,0,0-3.67,4,13.87,13.87,0,0,0,0,12,9.94,9.94,0,0,0,3.67,4,10.25,10.25,0,0,0,10.34,0Z"/><path class="cls-1" d="M150.8,70.5V87H135.46V70.31L118.3,41.51h16.18l9.3,15.73,9.36-15.73H168Z"/><path class="cls-1" d="M208,79.08H190.71L187.65,87h-15.6l19.89-45.5H207L226.91,87H211.05Zm-4.23-11-4.42-11.44L194.93,68Z"/><g id="CAFE"><path class="cls-1" d="M76.53,19.54a8.17,8.17,0,0,1-3.14-3.06,8.52,8.52,0,0,1-1.14-4.38,8.52,8.52,0,0,1,1.14-4.38,8.13,8.13,0,0,1,3.15-3.06,9.87,9.87,0,0,1,8-.48A7.21,7.21,0,0,1,87.2,6L86.07,7.13a6.68,6.68,0,0,0-5-2,7.29,7.29,0,0,0-3.62.91,6.68,6.68,0,0,0-2.56,2.5A7,7,0,0,0,74,12.1a7,7,0,0,0,.92,3.55,6.68,6.68,0,0,0,2.56,2.5,7.29,7.29,0,0,0,3.62.91,6.57,6.57,0,0,0,5-2l1.13,1.13A7.41,7.41,0,0,1,84.5,20a9.35,9.35,0,0,1-3.47.63A9.14,9.14,0,0,1,76.53,19.54Z"/><path class="cls-1" d="M108.13,16H98.77l-2,4.49H94.9l7.68-16.8h1.76L112,20.5h-1.88Zm-.65-1.44-4-9-4,9Z"/><path class="cls-1" d="M123.06,5.24v6.6h8.68v1.53h-8.68V20.5h-1.78V3.7H132.8V5.24Z"/><path class="cls-1" d="M154.66,19V20.5H142.78V3.7H154.3V5.24h-9.74v6h8.69v1.51h-8.69V19Z"/><rect id="Accent" class="cls-1" x="142.77" width="11.5" height="1"/></g></g></g></svg>