<svg xmlns="http://www.w3.org/2000/svg" viewBox="0 0 226.91 124.03"><defs><style>.cls-1{fill:#fff;}.cls-2{fill:none;stroke:#fff;stroke-miterlimit:10;}</style></defs><title>Asset 6</title><g id="Layer_2" data-name="Layer 2"><g id="Logo"><g id="Tagline"><path class="cls-1" d="M11,110.14v8.4h-.85v-6.72l-3.3,5.65H6.41l-3.3-5.62v6.69H2.26v-8.4H3l3.65,6.22,3.61-6.22Z"/><path class="cls-1" d="M16.42,118.05a4.08,4.08,0,0,1-1.58-1.53,4.47,4.47,0,0,1,0-4.37,4.08,4.08,0,0,1,1.58-1.53,4.66,4.66,0,0,1,2.27-.56,4.58,4.58,0,0,1,2.25.56,4,4,0,0,1,1.57,1.53,4.17,4.17,0,0,1,.58,2.19,4.22,4.22,0,0,1-.58,2.19,4.12,4.12,0,0,1-1.57,1.53,4.88,4.88,0,0,1-4.52,0Zm4.07-.68a3.36,3.36,0,0,0,1.26-1.25,3.57,3.57,0,0,0,.45-1.78,3.61,3.61,0,0,0-.45-1.79,3.33,3.33,0,0,0-1.26-1.24,3.85,3.85,0,0,0-3.61,0,3.29,3.29,0,0,0-1.27,1.24,3.51,3.51,0,0,0-.46,1.79,3.47,3.47,0,0,0,.46,1.78,3.32,3.32,0,0,0,1.27,1.25,3.85,3.85,0,0,0,3.61,0Z"/><path class="cls-1" d="M26.38,110.14H29.8a5,5,0,0,1,2.35.53,3.85,3.85,0,0,1,1.58,1.49,4.43,4.43,0,0,1,0,4.35A3.79,3.79,0,0,1,32.15,118a5,5,0,0,1-2.35.54H26.38Zm3.37,7.63a4.07,4.07,0,0,0,1.93-.44A3.27,3.27,0,0,0,33,116.12a3.77,3.77,0,0,0,0-3.57,3.27,3.27,0,0,0-1.29-1.21,4.07,4.07,0,0,0-1.93-.44H27.27v6.87Z"/><path class="cls-1" d="M43.53,117.77v.77H37.59v-8.4h5.76v.76H38.47v3h4.35v.76H38.47v3.12Z"/><path class="cls-1" d="M52.64,118.54l-1.92-2.7c-.21,0-.43,0-.67,0H47.8v2.67h-.89v-8.4h3.14a3.81,3.81,0,0,1,2.52.76,2.63,2.63,0,0,1,.91,2.12,2.74,2.74,0,0,1-.49,1.66,2.81,2.81,0,0,1-1.43,1l2.06,2.88Zm-.7-4A1.89,1.89,0,0,0,52.6,113a1.92,1.92,0,0,0-.66-1.57A3,3,0,0,0,50,110.9H47.8v4.22H50A2.9,2.9,0,0,0,51.94,114.56Z"/><path class="cls-1" d="M63.9,110.14v8.4h-.73l-5.4-6.82v6.82h-.89v-8.4h.73L63,117v-6.81Z"/><path class="cls-1" d="M79.36,110.14l-3.72,8.4h-.88L71,110.14h1l3.22,7.29,3.24-7.29Z"/><path class="cls-1" d="M87.8,117.77v.77H81.86v-8.4h5.76v.76H82.75v3H87.1v.76H82.75v3.12Z"/><path class="cls-1" d="M97.06,114.34h.85v3.2a4.13,4.13,0,0,1-1.39.79,5.05,5.05,0,0,1-1.7.28,4.69,4.69,0,0,1-2.26-.55A4.1,4.1,0,0,1,91,116.53a4.31,4.31,0,0,1-.57-2.19,4.26,4.26,0,0,1,.57-2.19,4,4,0,0,1,1.59-1.53,4.64,4.64,0,0,1,2.28-.56,5,5,0,0,1,1.76.31,3.47,3.47,0,0,1,1.36.91l-.56.56a3.41,3.41,0,0,0-2.53-1,3.77,3.77,0,0,0-1.84.45,3.28,3.28,0,0,0-1.29,1.24,3.52,3.52,0,0,0-.47,1.79,3.44,3.44,0,0,0,.47,1.77A3.34,3.34,0,0,0,93,117.36a3.78,3.78,0,0,0,1.84.46,3.69,3.69,0,0,0,2.2-.65Z"/><path class="cls-1" d="M107.65,117.77v.77h-5.94v-8.4h5.76v.76H102.6v3h4.34v.76H102.6v3.12Z"/><path class="cls-1" d="M112.67,110.9h-3v-.76h6.79v.76h-3v7.64h-.89Z"/><path class="cls-1" d="M124.07,116.29h-4.68l-1,2.25h-.92l3.84-8.4h.87l3.84,8.4h-.93Zm-.33-.72-2-4.51-2,4.51Z"/><path class="cls-1" d="M134.44,118.54l-1.92-2.7c-.22,0-.44,0-.68,0h-2.25v2.67h-.89v-8.4h3.14a3.77,3.77,0,0,1,2.52.76,2.64,2.64,0,0,1,.92,2.12,2.75,2.75,0,0,1-.5,1.66,2.78,2.78,0,0,1-1.42,1l2,2.88Zm-.71-4a1.89,1.89,0,0,0,.66-1.54,1.92,1.92,0,0,0-.66-1.57,3,3,0,0,0-1.91-.55h-2.23v4.22h2.23A2.9,2.9,0,0,0,133.73,114.56Z"/><path class="cls-1" d="M138.67,110.14h.89v8.4h-.89Z"/><path class="cls-1" d="M148.86,116.29h-4.68l-1,2.25h-.92l3.84-8.4H147l3.84,8.4h-.93Zm-.32-.72-2-4.51-2,4.51Z"/><path class="cls-1" d="M160.51,110.14v8.4h-.73l-5.4-6.82v6.82h-.89v-8.4h.73l5.42,6.81v-6.81Z"/><path class="cls-1" d="M170.38,118.06a4.05,4.05,0,0,1-1.57-1.53,4.31,4.31,0,0,1-.57-2.19,4.26,4.26,0,0,1,.57-2.19,3.94,3.94,0,0,1,1.58-1.53,4.58,4.58,0,0,1,2.25-.56,4.63,4.63,0,0,1,1.73.32,3.51,3.51,0,0,1,1.35.91l-.57.56a3.35,3.35,0,0,0-2.48-1,3.65,3.65,0,0,0-1.81.45,3.34,3.34,0,0,0-1.28,1.25,3.65,3.65,0,0,0,0,3.55,3.27,3.27,0,0,0,1.28,1.25,3.66,3.66,0,0,0,1.81.46,3.3,3.3,0,0,0,2.48-1l.57.56a3.65,3.65,0,0,1-1.35.92,4.88,4.88,0,0,1-4-.23Z"/><path class="cls-1" d="M179.72,117.67a3.77,3.77,0,0,1-.91-2.72v-4.81h.89v4.77a3.15,3.15,0,0,0,.66,2.19,2.91,2.91,0,0,0,3.83,0,3.15,3.15,0,0,0,.66-2.19v-4.77h.86V115a3.77,3.77,0,0,1-.9,2.72,3.92,3.92,0,0,1-5.09,0Z"/><path class="cls-1" d="M189.68,110.14h.89v8.4h-.89Z"/><path class="cls-1" d="M195.13,118.31a3.33,3.33,0,0,1-1.33-.79l.35-.69a3.27,3.27,0,0,0,1.21.74,4.35,4.35,0,0,0,1.56.28,2.88,2.88,0,0,0,1.69-.41,1.29,1.29,0,0,0,.57-1.08,1.09,1.09,0,0,0-.31-.8,2.11,2.11,0,0,0-.75-.46,12.17,12.17,0,0,0-1.24-.36,13,13,0,0,1-1.51-.46,2.34,2.34,0,0,1-1-.68,1.77,1.77,0,0,1-.41-1.23,2.13,2.13,0,0,1,.34-1.16,2.23,2.23,0,0,1,1-.83,4.21,4.21,0,0,1,1.73-.32,5.16,5.16,0,0,1,1.41.2,4,4,0,0,1,1.19.55l-.3.71a4,4,0,0,0-1.12-.53,4.55,4.55,0,0,0-1.18-.17,2.66,2.66,0,0,0-1.66.43,1.32,1.32,0,0,0-.56,1.09,1.06,1.06,0,0,0,.31.81,2,2,0,0,0,.76.47c.31.11.73.23,1.25.36a12,12,0,0,1,1.49.45,2.42,2.42,0,0,1,1,.67,1.79,1.79,0,0,1,.39,1.22,2,2,0,0,1-.34,1.15,2.28,2.28,0,0,1-1.05.83,4.27,4.27,0,0,1-1.74.31A5.38,5.38,0,0,1,195.13,118.31Z"/><path class="cls-1" d="M203.28,110.14h.89v8.4h-.89Z"/><path class="cls-1" d="M215.22,110.14v8.4h-.73l-5.4-6.82v6.82h-.89v-8.4h.73l5.41,6.81v-6.81Z"/><path class="cls-1" d="M225.19,117.77v.77h-5.94v-8.4H225v.76h-4.87v3h4.34v.76h-4.34v3.12Z"/><line class="cls-2" x1="0.46" y1="104.03" x2="226.46" y2="104.03"/><line class="cls-2" x1="0.46" y1="123.53" x2="226.46" y2="123.53"/></g><g id="Logo_-_Vertical" data-name="Logo - Vertical"><path class="cls-1" d="M19.5,75.57H15.34V87H0V41.51H21.9a27,27,0,0,1,11,2.08,16.14,16.14,0,0,1,7.21,6,16.34,16.34,0,0,1,2.54,9.1,16.14,16.14,0,0,1-2.21,8.52A15.64,15.64,0,0,1,34.06,73l9.55,14H27.23Zm6.11-20.83a6.83,6.83,0,0,0-4.68-1.4H15.34V64h5.59a6.78,6.78,0,0,0,4.68-1.4,5,5,0,0,0,1.56-3.93A5,5,0,0,0,25.61,54.74Z"/><path class="cls-1" d="M70.65,85a23.33,23.33,0,0,1,0-41.47,28,28,0,0,1,13.2-3.06A28,28,0,0,1,97,43.53a22.76,22.76,0,0,1,12.48,20.73A22.78,22.78,0,0,1,97,85a28.09,28.09,0,0,1-13.19,3A28.16,28.16,0,0,1,70.65,85ZM89,74.24a9.94,9.94,0,0,0,3.67-4,14,14,0,0,0,0-12,10.07,10.07,0,0,0-3.67-4,10.31,10.31,0,0,0-10.34,0,10.07,10.07,0,0,0-3.67,4,13.87,13.87,0,0,0,0,12,9.94,9.94,0,0,0,3.67,4,10.25,10.25,0,0,0,10.34,0Z"/><path class="cls-1" d="M150.8,70.5V87H135.46V70.31L118.3,41.51h16.18l9.3,15.73,9.36-15.73H168Z"/><path class="cls-1" d="M208,79.08H190.71L187.65,87h-15.6l19.89-45.5H207L226.91,87H211.05Zm-4.23-11-4.42-11.44L194.93,68Z"/><g id="CAFE"><path class="cls-1" d="M76.53,19.54a8.17,8.17,0,0,1-3.14-3.06,8.52,8.52,0,0,1-1.14-4.38,8.52,8.52,0,0,1,1.14-4.38,8.13,8.13,0,0,1,3.15-3.06,9.87,9.87,0,0,1,8-.48A7.21,7.21,0,0,1,87.2,6L86.07,7.13a6.68,6.68,0,0,0-5-2,7.29,7.29,0,0,0-3.62.91,6.68,6.68,0,0,0-2.56,2.5A7,7,0,0,0,74,12.1a7,7,0,0,0,.92,3.55,6.68,6.68,0,0,0,2.56,2.5,7.29,7.29,0,0,0,3.62.91,6.57,6.57,0,0,0,5-2l1.13,1.13A7.41,7.41,0,0,1,84.5,20a9.35,9.35,0,0,1-3.47.63A9.14,9.14,0,0,1,76.53,19.54Z"/><path class="cls-1" d="M108.13,16H98.77l-2,4.49H94.9l7.68-16.8h1.76L112,20.5h-1.88Zm-.65-1.44-4-9-4,9Z"/><path class="cls-1" d="M123.06,5.24v6.6h8.68v1.53h-8.68V20.5h-1.78V3.7H132.8V5.24Z"/><path class="cls-1" d="M154.66,19V20.5H142.78V3.7H154.3V5.24h-9.74v6h8.69v1.51h-8.69V19Z"/><rect id="Accent" class="cls-1" x="142.77" width="11.5" height="1"/></g></g></g></g></svg>