<svg xmlns="http://www.w3.org/2000/svg" viewBox="0 0 173.59 20.88"><defs><style>.cls-1{fill:#fff;}</style></defs><title>Asset 3</title><g id="Layer_2" data-name="Layer 2"><g id="Logo_-_Horizontal" data-name="Logo - Horizontal"><path class="cls-1" d="M4.28,19.54a8.17,8.17,0,0,1-3.14-3.06A8.52,8.52,0,0,1,0,12.1,8.52,8.52,0,0,1,1.14,7.72,8.09,8.09,0,0,1,4.3,4.66a9.16,9.16,0,0,1,4.51-1.1,9.2,9.2,0,0,1,3.45.62A7.13,7.13,0,0,1,15,6L13.82,7.13a6.66,6.66,0,0,0-5-2,7.3,7.3,0,0,0-3.63.91,6.59,6.59,0,0,0-2.55,2.5,6.87,6.87,0,0,0-.93,3.55,6.87,6.87,0,0,0,.93,3.55,6.59,6.59,0,0,0,2.55,2.5,7.3,7.3,0,0,0,3.63.91,6.56,6.56,0,0,0,5-2L15,18.17A7.25,7.25,0,0,1,12.25,20a9.35,9.35,0,0,1-3.47.63A9.14,9.14,0,0,1,4.28,19.54Z"/><path class="cls-1" d="M35.88,16H26.52l-2,4.49H22.66L30.33,3.7h1.76l7.68,16.8H37.9Zm-.65-1.44-4-9-4,9Z"/><path class="cls-1" d="M50.81,5.24v6.6H59.5v1.53H50.81V20.5H49V3.7H60.55V5.24Z"/><path class="cls-1" d="M82.42,19V20.5H70.54V3.7H82.06V5.24H72.31v6H81v1.51H72.31V19Z"/><path class="cls-1" d="M97,16.28H95.47V20.5H89.81V3.7H97.9a9.92,9.92,0,0,1,4,.77,6,6,0,0,1,2.67,2.21,6.06,6.06,0,0,1,.93,3.36,6,6,0,0,1-.81,3.14,5.78,5.78,0,0,1-2.36,2.14l3.53,5.18h-6Zm2.25-7.7a2.52,2.52,0,0,0-1.72-.51H95.47V12h2.07a2.52,2.52,0,0,0,1.72-.51A1.84,1.84,0,0,0,99.84,10,1.85,1.85,0,0,0,99.26,8.58Z"/><path class="cls-1" d="M115.89,19.76a8.6,8.6,0,0,1-3.38-3.14,8.44,8.44,0,0,1-1.22-4.52,8.44,8.44,0,0,1,1.22-4.52,8.6,8.6,0,0,1,3.38-3.14,11.17,11.17,0,0,1,9.75,0,8.46,8.46,0,0,1,4.61,7.66,8.46,8.46,0,0,1-4.61,7.66,11.17,11.17,0,0,1-9.75,0Zm6.78-4A3.69,3.69,0,0,0,124,14.32a4.61,4.61,0,0,0,.51-2.22A4.61,4.61,0,0,0,124,9.88a3.69,3.69,0,0,0-1.36-1.46,3.75,3.75,0,0,0-3.81,0,3.69,3.69,0,0,0-1.36,1.46,4.72,4.72,0,0,0-.5,2.22,4.72,4.72,0,0,0,.5,2.22,3.69,3.69,0,0,0,1.36,1.46,3.75,3.75,0,0,0,3.81,0Z"/><path class="cls-1" d="M145.49,14.4v6.1h-5.67V14.33L133.49,3.7h6l3.43,5.81,3.46-5.81h5.47Z"/><path class="cls-1" d="M166.61,17.57h-6.39l-1.13,2.93h-5.76l7.35-16.8h5.57l7.34,16.8h-5.85Zm-1.56-4.08-1.63-4.22-1.64,4.22Z"/><rect id="Accent" class="cls-1" x="70.52" width="11.5" height="1"/></g></g></svg>