<svg xmlns="http://www.w3.org/2000/svg" viewBox="0 0 354.03 593.53"><defs><style>.cls-1{opacity:0.1;}.cls-2{fill:#fff;}</style></defs><title>peashoots</title><g id="Layer_2" data-name="Layer 2"><g id="For_Export" data-name="For Export" class="cls-1"><path class="cls-2" d="M59.77,520.81a2.51,2.51,0,0,0-1.51.84,3.89,3.89,0,0,0-.32.39,1.34,1.34,0,0,0-1.3.12C50,526.5,54,535.73,60.94,536.94c7.26,1.27,15.61-5.53,11.56-13.13C70,519.11,63.8,518.17,59.77,520.81Z"/><path class="cls-2" d="M120.42,577.28c-3.44-2.44-8-1.79-11.14.55a1.28,1.28,0,0,0-.91,0c-8.67,2.74-5.68,14.68,2.55,15.66a11.61,11.61,0,0,0,11.1-5.91C123.8,584.31,123.66,579.57,120.42,577.28Z"/><path class="cls-2" d="M145.84,559.71a7.29,7.29,0,0,0-5.48,1.33,1.78,1.78,0,0,0-.64.21,8,8,0,0,0-4,6.37,6.06,6.06,0,0,0,1.39,6.14,6.84,6.84,0,0,0,.83.7,8.58,8.58,0,0,0,2.75,2.08c6.77,3.22,13.64-3.86,11.91-10.59A8.43,8.43,0,0,0,145.84,559.71Z"/><path class="cls-2" d="M191.6,562.81c-4.6,2.4-7.94,6.91-5.77,12.47,2.23,5.73,9,7.51,14.33,5.06s9.83-9.47,5.55-14.77C202.08,561.08,195.82,559.58,191.6,562.81Z"/><path class="cls-2" d="M245.06,554.61a1,1,0,0,0-.2.15,8.12,8.12,0,0,0-1.74,2.88,8.79,8.79,0,0,0-.67,2.68,6.85,6.85,0,0,0,2.32,5.89,2.31,2.31,0,0,0,1.44,1.07c4.28.85,9,.75,12.42-2.39a8.44,8.44,0,0,0,1.72-10.5C256.71,548.51,249.09,550.12,245.06,554.61Z"/><path class="cls-2" d="M224.41,523.4a8,8,0,0,0-4.22,2,1.57,1.57,0,0,0-.28.1c-4.46,2-3.75,6.95-1.24,10.18a7.72,7.72,0,0,0,10.66,3.19,8,8,0,0,0,5.59-5.47C236.76,527,230.25,522.59,224.41,523.4Z"/><path class="cls-2" d="M253.66,517.68c8.1-4.54,6.59-15.44,4.59-22.89-1.84-6.87-3.31-13.48-3.21-20.66s1.39-14,2.74-20.95c2.45-12.67,3.78-25.57,6.63-38.16a224,224,0,0,1,12.09-38.67,3,3,0,0,0,.22-.9,2.79,2.79,0,0,0,.33-.8,58.68,58.68,0,0,1,2-7.39c.7-1.83,1.53-3.93,1.2-5.9a.64.64,0,0,0-.94-.38c-1.81,1-2.87,3-3.71,4.83-1.08,2.3-2.35,4.46-3.39,6.79a3.11,3.11,0,0,0-.26.93.47.47,0,0,0-.05.1c-9.8,22.77-14.74,47.2-19,71.52-2.08,11.83-4.07,24.49-2.8,36.51,1.18,11.13,11,24.44,2.4,34.47A1,1,0,0,0,253.66,517.68Z"/><path class="cls-2" d="M262.77,470.86c3.63-15,6.36-30.3,9.79-45.39q2.49-11,5.21-22c1.71-7,4.71-14.15,5.35-21.29.11-1.21-1.61-1.52-2.18-.59-3.7,6.09-5.32,13.92-7.48,20.69-2.38,7.49-4.44,15-6.23,22.68-3.49,14.9-6,30.24-8,45.41C258.91,472.43,262.29,472.83,262.77,470.86Z"/><path class="cls-2" d="M315.21,360.67c-.21,25.21-1.45,50.39-8.09,74.83a172.93,172.93,0,0,1-12.07,32.68,109.67,109.67,0,0,1-8.12,13.8c-3.12,4.43-7.49,8.2-10.06,13a.83.83,0,0,0,.93,1.2c9.36-3.13,16-15.15,20.28-23.39,5.51-10.69,9.28-22.82,12.43-34.39,6.86-25.24,10.36-52,6.67-78C317,359.26,315.22,359.57,315.21,360.67Z"/><path class="cls-2" d="M116.35,133.08c3.59-6.37-4.09-15.19-9.58-8.81-1,1.23-.07,3.83,1.78,3.07q4.52-1.78,1.77,5.75a10.53,10.53,0,0,1-3.47,1.47,11.08,11.08,0,0,1-7.18-1c-6.2-3.26-5.12-9.67-.83-13.81,5.41-5.22,12.17-6.37,18.93-5a27.68,27.68,0,0,0,13.36,5.6c8.41,1.08,17.08-1.87,23.71-7a168.55,168.55,0,0,0,20.25-18.94c13.84,3.79,28.76-.09,42.45,5,3.3,1.22,4.66-4,1.44-5.23-14.34-5.55-30.14-.37-44.51-5.31-7.29-2.51-14.74-8.65-14.08-17.14.28-3.55,2.17-7.91,5.51-9.61,2.87-1.45,7.28-.7,8.84,2.39,1.75,3.46-3.07,9.5-5.25,5.5a1.16,1.16,0,0,0-2.11.9c2.72,10,14.82,1,11.48-7.13-4.52-11-20.09-5.3-22.89,3.86C152.52,79,160.81,88.76,170.62,93c-7.1,6.39-13.25,13.92-21.85,18.43-7.41,3.88-17,4.85-24.61,1.08a20,20,0,0,0-2.92-1.78,20.61,20.61,0,0,1-2.29-1.92c-6.94-6.9-7.47-18.56.1-25.21,3.55-3.11,10.62-5.22,14.44-1.18,2.65,2.81,1.83,7.47-.26,10.3a6.58,6.58,0,0,1-3,2.56,2.35,2.35,0,0,1-2.75,0q-4.08.08-.42-3.94c3,.59,4.37-4,1.29-4.69-4.38-1-8.84,2-8.57,6.79.29,5.24,5.39,8.32,10.27,7.4,11.67-2.19,13.94-20.41,2.45-24.55C120.61,72,108.69,83,108.07,94.59a23,23,0,0,0,3.88,14,23,23,0,0,0-14.66,5.35c-6.41,5.36-9.49,15.17-2.29,21.31C100.6,140,112.38,140.12,116.35,133.08Z"/><path class="cls-2" d="M98,93.65c-1.8-10-10.17-11.16-18.38-9,1.42-7.84,7.13-15,14-18.71a1.35,1.35,0,0,0,.62-.72c6.33-3.51,12.58-7.12,18.84-10.47,12.43-6.64,25.47-12.71,39.46-15.11a72.17,72.17,0,0,1,19.08-.8c6.94.67,13.19,3.08,19.75,5.24,2.7.9,3.9-2.87,1.83-4.33-11.44-8.08-28.15-8-41.38-5.84a89.93,89.93,0,0,0-10.68,2.48c-3.62-1.55-7.38-2.34-10.39-5.46-4.62-4.79-5.55-12.11-3.59-18.28,2.1-6.59,9.13-11.38,15.8-7.45a7.9,7.9,0,0,1,3,10.68,5.27,5.27,0,0,1-4.43,3c-3.9-.07-5.76-4.57-.82-6.53.88-.35,1.1-1.77,0-2-9.51-2.21-8.48,15.92,2.77,13.48,12-2.61,9.41-19.95-.78-23.13C133.5-2.17,125,4.23,121.8,12.51c-3.89-4.14-10.6-6.71-15.21-6.46-9.18.5-17.48,9.07-16.59,18.4.76,8,9.4,17.43,18,13,8.31-4.29,4.33-16.34-4.53-16.18-3.28.07-3.17,4.74,0,5,3.7.36,4.67,2.47,2.94,6.34a6.46,6.46,0,0,1-7-.24,10.9,10.9,0,0,1-4.64-6.43,11.63,11.63,0,0,1,4.86-12.49,13.84,13.84,0,0,1,15,0c2.91,1.87,4.08,4.71,5.78,7.3a22.71,22.71,0,0,0,8.26,16.39,22.28,22.28,0,0,0,3.6,2.32,206.57,206.57,0,0,0-24.57,11.74c-15.08,8.21-29.84,17.42-46.18,23-15,5.1-36.67,8.71-46.23-7.59-4.72-8.06-1.59-19,8.39-20.9a9.55,9.55,0,0,1,11.09,6.74,8.09,8.09,0,0,1-.36,5.83c-1.09,2.36-2.46,4-5.06,3.4a2.31,2.31,0,0,1-2.54-1.47q-2.73-2.22,1.8-4.39a1.65,1.65,0,0,0,0-3.29c-7.27-.5-10.31,9.13-4,12.93,6.84,4.13,15.29-2.8,15.48-9.94a15.25,15.25,0,0,0-13.07-15c-8.2-.94-15.72,5-17.82,12.69a23.18,23.18,0,0,0,7.82,24C25.44,84,36.57,85.23,47,83.73,58.48,82.08,69.26,78,79.68,72.91A26.37,26.37,0,0,0,74.06,86.7a35.17,35.17,0,0,0-8.81,5.53,27.21,27.21,0,0,0-6,7.56,26.68,26.68,0,0,0-21.49,15.52c-.68,0-1.36-.09-2-.09-15.8,0-37.91,13.76-35.55,31.7.9,6.77,6.71,14.11,14.26,12.63,6-1.18,9-8,5.18-12.85-1.28-1.62-4.32.13-3.53,2.05a3.67,3.67,0,0,1-1.88,5c-2.51,1.2-5.49-.67-7-2.79-2.89-4.14-2.3-10-.06-14.29,4-7.7,13.28-13.62,21.43-16a24.22,24.22,0,0,1,7.71-.93c-1.43,6.44-.53,13.86,3.43,19.21,3.39,4.58,9.68,6.65,13.94,1.89,4.47-5,3.35-12.43-.47-17.43a20.83,20.83,0,0,0-10.1-7,21.14,21.14,0,0,1,14.36-12,19.58,19.58,0,0,0-.37,7.74c1,6.29,5.51,12.5,12.21,13.16,5.87.57,10.43-4.67,10.91-10.24.55-6.32-4-11.48-9.65-13.72a23.22,23.22,0,0,0-6-1.5,19.08,19.08,0,0,1,1-1.83,24.35,24.35,0,0,1,8.43-7.62,21.42,21.42,0,0,0,1.61,6.46c2.36,5.59,7.84,9.29,14,8.31A9.79,9.79,0,0,0,98,93.65ZM51.49,130.1c.65,2.42.51,5.24-1.5,6.92-2.52,2.11-4.84-.1-6.22-2.39-2.33-3.85-2.82-9.17-2.06-13.54,0-.15.06-.3.09-.45C46.33,122,50.14,125,51.49,130.1Zm19.42-23.85c3.77,2.29,8.13,9.7,2.76,13.12-4.69,3-9.58-2.8-10.63-6.84a17.6,17.6,0,0,1,.07-8.65A17.17,17.17,0,0,1,70.91,106.25Zm15.23-6.57c-4.85-1-6.69-6.31-6.83-10.68,0-.26,0-.51,0-.76,3.8-.94,7.64-.56,10.64,2.08C94.29,94.14,92.47,100.93,86.14,99.68Z"/><path class="cls-2" d="M185.85,54.89a11.67,11.67,0,0,0-1.39,1.33.57.57,0,0,0,0,.13c0,.17.05.34.08.51a36.6,36.6,0,0,0,5.12,14.81c.4.63.83,1.24,1.3,1.84.16-.15.32-.3.48-.43C197.2,68,204,64.24,211,61a1.22,1.22,0,0,0,.61-1c.56-8.32.75-16.7,1-25a.91.91,0,0,0-1.54-.64c-2.14,1.76-5.21,1.28-7.13,3.35-.86.92-.78,1.58-1.33,2.64-1.85,3.56-3.58,5.21-7.72,5.34a.76.76,0,0,0-.73.55C193.38,50.54,189,52.21,185.85,54.89Z"/><path class="cls-2" d="M228.38,59.43a.05.05,0,1,0,0,.1A.05.05,0,0,0,228.38,59.43Z"/><path class="cls-2" d="M225.06,59.55a12.15,12.15,0,0,0,2.46.4l-.72-1.18a25.84,25.84,0,0,1-3.24-7.2c-.55-2.18-1.09-4.77-.39-7a5.66,5.66,0,0,1,2.9-3.59,7.84,7.84,0,0,1,2.07,4.59,16.5,16.5,0,0,0,.59,4.2c1.1,2.78,3.91,4.18,6.46,5.37a.75.75,0,0,0,1-.27,13.32,13.32,0,0,0,2.28-8c-.12-2.34-1.48-4.56-1.89-6.81a9,9,0,0,1,7.15-1,16.39,16.39,0,0,1,2.46.79h0l1.47.56a10.86,10.86,0,0,0-.28-2.39c-2-8.84-13.85-12.37-19.94-6.75-5.37-1.37-11.35,4.21-12.4,9.79C213.58,48.81,217.55,57.54,225.06,59.55Z"/><path class="cls-2" d="M215.13,63.92c-8.69,1.41-23,8.85-22.17,18.76a11,11,0,0,0,.54,2.55l.7-.46c3.68-2.44,7.26-4.82,12.17-4.73,5.83.1,11.11,2.74,17,2.24,5.45-.46,11.31-2.72,14-7.18a10,10,0,0,0,.92-1.92l-.88-1.1A23.29,23.29,0,0,0,215.13,63.92Z"/><path class="cls-2" d="M244.28,48.58l-.12.4c-2,6-2.23,12.69-2.14,19,.12,8.5,1.47,17.06,5.22,24.75,3.6,7.38,9.44,13.07,16.14,17.67,3.71,2.56,7.64,4.8,11.58,7,.81.45,1.62.92,2.43,1.4l1.88,1.09c.32-.71.6-1.44.85-2.17a17.59,17.59,0,0,0,.77-8.79c-1.69-9.11-12.16-13.25-14.93-22-1.76-5.58,1.33-10,.88-15.39-.25-3-1.94-5.58-3.85-7.84a66.21,66.21,0,0,0-17.87-14.52Z"/><path class="cls-2" d="M283.23,102.56c1,1,2,2.07,2.92,3.17.39-1.33.77-2.66,1.17-4a65.58,65.58,0,0,1,3.11-8.67c2.09-4.58,4.71-9.08,3.08-14.25-1.44-4.54-5.16-7.67-8.83-10.41-4.3-3.22-8.56-6.47-12.74-9.84l-.51-.42c0,.52,0,1-.06,1.55a91.44,91.44,0,0,1-1.89,14.84c-.87,4.16-1.16,8.13.42,12.17C272.47,93.28,278.26,97.6,283.23,102.56Z"/><path class="cls-2" d="M296.69,75.05c2.27,4.34,2.93,8.82.6,13.27-1.28,2.44-2.93,4.64-4,7.2a30.25,30.25,0,0,0-1.08,18.54c-.26,6.07-.21,12.17-.06,18.24.19,8,.16,16.51,1.83,24.34.6,2.82,4.65,2,4.8-.65.48-8.11-.55-16.55-.84-24.68-.16-4.44-.23-8.88-.34-13.32l.1-.07c5.23-4.28,8.51-11.39,9.12-18.35,9-2.21,14.69-10.44,14.4-21.33a127.33,127.33,0,0,0-3.54-25.33c-.8-3.43-1.71-7.17-2.93-10.79L314.37,41a30.51,30.51,0,0,0-4.49.3,33.56,33.56,0,0,0-26.33,20.06l-.29.75.43.26C288.94,65.56,293.79,69.51,296.69,75.05Z"/><path class="cls-2" d="M270.53,148.51l-.08.29h0a8.06,8.06,0,0,0,1.38.06,11.46,11.46,0,0,0,7.55-3.54c1.75,4.28,5.46,7.78,9.84,8.63a10.49,10.49,0,0,0,1.58.19c-.25-.5-.5-1-.72-1.5a31.32,31.32,0,0,1-2.41-16.88c.38-3.45.45-7.56-3.18-9.29-4.73-2.26-9.28,2.13-12.89,4.44-.6.38-1.2.75-1.82,1.11-.26.16-.53.31-.79.45a46.75,46.75,0,0,1-15,5.28h0l-.93.15.69.46c5.31,3.32,12.44,3.8,17.77.79a32,32,0,0,1-.87,8.91Z"/><path class="cls-2" d="M262.43,190.24C269,179.53,274.88,167.4,278,155c.14-.58.27-1.15.4-1.72l-1.55.08h0a52.91,52.91,0,0,0-8.79,1.49,35.92,35.92,0,0,0-.14-8.6c-.08-.76-.18-1.5-.28-2.21l-1.25.24c-7,1.45-13.92,5.1-19.13,8.78-8.3,5.87-14.94,13.86-20.15,22.52-6.22,10.33-10.55,21.85-19.16,30.57A54.51,54.51,0,0,1,186,219.52l-4.12,1.23,1,.8c1.09.84,2.19,1.59,3.21,2.24a37.94,37.94,0,0,0,15.34,5.65c12.85,1.81,26.12-3.16,36.34-10.74S255.85,201,262.43,190.24Z"/><path class="cls-2" d="M264.87,289.38c7.93,4.34,14-7.52,16.19-15.21.17-.59.32-1.16.43-1.69l-.41-.58c-3.78-5.25-8.43-10.27-14.52-11.36a10.13,10.13,0,0,0-10.09,3.74,7.56,7.56,0,0,0-1.13,2.44c.14.16.27.32.4.49a24.68,24.68,0,0,1,5.16,10.1C261.81,281.07,260.82,287.16,264.87,289.38Z"/><path class="cls-2" d="M291.82,289l.74-.41-.92-.92c-2.47-2.46-5-4.89-7.35-7.46-.1-.1-.19-.21-.28-.31l-.2.29c-1.88,2.92-3.73,5.95-5.36,9.07l-.3.58q.72.21,1.47.36A19,19,0,0,0,291.82,289Z"/><path class="cls-2" d="M301.77,289.08c.86.46,1.74.91,2.63,1.32l.42-.74c3.44-6.25,6.13-14.38,5.61-21.16a16.3,16.3,0,0,0-.47-3l-2,1.73a9.46,9.46,0,0,1-4.41,1.76c-4.11.53-7.2-1.49-10.49-3.31-.48-.27-1-.54-1.47-.79l-.25.31c-3.49,4.1-7.77,8.13-4.19,13.46,1.84,2.75,5.21,4.56,7.9,6.32C297.22,286.41,299.45,287.83,301.77,289.08Z"/><path class="cls-2" d="M319.44,248.42c-5.29,8.32-5.77,22.88.25,30.9a.61.61,0,0,0,.95.08c9.47.24,19.07-5.15,24.87-12.42s8.59-18.57-.6-24.53C336.51,237,324.72,240.14,319.44,248.42Z"/><path class="cls-2" d="M341.78,329.44a.05.05,0,1,0,0-.1A.05.05,0,0,0,341.78,329.44Z"/><path class="cls-2" d="M351.67,296.65c-4.16-8.89-14.31-13.59-23.9-12.75a21.56,21.56,0,0,0-13,3.55c-7.13,4.77-10.35,13-11.28,21.22-.35,3.11,4.94,3.85,5.5.75,1.08-5.95,3.18-12,8-16a14.08,14.08,0,0,1,4.42-2.5c-2.23,6.94-2.35,14.15,2.58,20.41S336.8,323,344.76,326l1.51.53a19.74,19.74,0,0,0,2.49-2.6C354.64,316.54,355.58,305,351.67,296.65Z"/><path class="cls-2" d="M313,331.93c1.14-6.18,1.09-13-3.89-15.11-6-2.56-9.19,3.3-11,8.68a25.2,25.2,0,0,0-10.64,8.33c-3.07,4.51-3.06,9.68-2.51,14.92l0,.34,1.08-.24a35,35,0,0,0,15.9-8.5,50.49,50.49,0,0,1,4.92,15.79l.1.74.77-.22a23.74,23.74,0,0,0,6.62-3.11,32,32,0,0,0,5.16,6.18c.46.43.93.83,1.4,1.21a12.2,12.2,0,0,0,.27-1.23C323.11,349.91,321,337.67,313,331.93Z"/><path class="cls-2" d="M295.8,430.11c6.32-26.28,10.63-55.86,3.79-82.61,0-.14-.07-.28-.11-.42a.08.08,0,0,0,0,.06,13.44,13.44,0,0,1-2.2,6.84,27.09,27.09,0,0,1-5.06,5.51c-1.45,1.29-2.87,2.63-2.87,4.72s1.7,3.08,2.55,4.73c3.26,6.27-.08,9.61-4.8,11.72l-.6.26.84.75a9,9,0,0,1,2.72,8,9.21,9.21,0,0,1-3.21,5.56l-.11.08a3.15,3.15,0,0,1-.57.41,8.43,8.43,0,0,1,1,1.39,13.05,13.05,0,0,1,1.44,3.76,14.49,14.49,0,0,1,.56,3.05c0,2.14-1.92,4.51-3.84,5.34a28.34,28.34,0,0,1-5.09,1.48h0l-1.47.33c.56.4,1.13.81,1.68,1.24,3.76,2.91,7,6.66,5.59,11.9-.92,3.41-3.5,5.26-6.51,6.37l-1,.35c.37.5.72,1,1,1.53,1.86,3,2.75,6.43,1.09,10.16a12.1,12.1,0,0,1-3.21,4.19l-.82.68,1.22,1.32.05.06,0,0,0,0a9.26,9.26,0,0,1,1.83,8.5c-.76,2.72-2.35,4.75-5.27,5.13a9,9,0,0,1-2.43-.08l-.73-.11a14.43,14.43,0,0,1,.69,2c1.78,7-2.28,13-9.33,15.15l-1,.26c.15.71.3,1.42.44,2.14a98.17,98.17,0,0,1,1.72,11c0,.47.08.94.1,1.41,0,.24,0,.47,0,.71.55-.34,1.09-.71,1.62-1.1,7.63-5.48,13.15-13.49,17.08-22.15C288.68,458.62,292.42,444.14,295.8,430.11Z"/><path class="cls-2" d="M180.18,128.7c-.24.77-.44,1.56-.64,2.36-.85,3.28-1.8,6.52-5.26,8.11a7.87,7.87,0,0,1-6.46.13l-1.51-.89-1.12,1.73a15.73,15.73,0,0,1-6.77,5.49c-5.4,2.36-12.1,1.7-15.94-2.7a6.44,6.44,0,0,1-.52-.65l-.7.2a16.57,16.57,0,0,0-7.72,5.44l-.17.21.35.21c19.69,11.35,45,1.52,64.91-4.74q18.45-5.79,36.54-12.71c9.89-3.81,20.08-7.59,29.75-12.15l2.21-1.06c-.86-.24-1.73-.44-2.61-.64l-.79-.17c-1.92-.41-4.93-.55-6.15-2.36a4.32,4.32,0,0,1-.41-4h0a18.46,18.46,0,0,1,.69-1.77c-.58-.32-1.18-.64-1.79-.93a15.81,15.81,0,0,0-3.9-1.38l-.24,0c-.23.59-.48,1.21-.74,1.82-2.12,4.89-5.54,10-11.58,6.54a28.26,28.26,0,0,1-4.22-3l-.93-.78a6.22,6.22,0,0,0-1.57,1.39,5.36,5.36,0,0,0-.58,5.74c.94,2.22,1.83,3.94.82,6.33a5.54,5.54,0,0,1-6.35,3.37,5.71,5.71,0,0,1-4.37-4.93,5.4,5.4,0,0,1,.85-3.34l.87-1.2a6.08,6.08,0,0,0-2.16-.57h0a11.64,11.64,0,0,0-6.59,1.48l-.33.2a15.78,15.78,0,0,1,.44,1.53h0a7.9,7.9,0,0,1,0,4c-1.38,4.65-6.26,3.82-9.48,1.91-1.55-.92-3-2.2-4.56-3.12l-.82-.44c-.45.71-.87,1.45-1.3,2.19a17.86,17.86,0,0,1-4.35,5.66c-5.41,4.08-9.68.52-14.25-2.16h0Z"/><path class="cls-2" d="M228,109.64c3.6-1.1,13.7-3,14.6-7.76.71-3.74-3.88-4.06-6.39-3.69-8.76,1.28-17.6,4.2-26.12,6.59q-13.62,3.82-27,8.35c-14.06,4.72-30.27,9.15-40.48,20.54a133.13,133.13,0,0,0-12.09,6.15c-3.54,2-7.31,4.7-7.87,8.55h0c0,.13,0,.26,0,.39l.74-.34h0q25.75-12.16,52.53-22C193.05,120,210.53,115,228,109.64Z"/><path class="cls-2" d="M225.63,144.54c10.56-4,23.08-8,32-15.1.28-.22,0-.61-.32-.55-5.33,1.19-10.36,3.77-15.4,5.8-5.42,2.19-10.81,4.43-16.27,6.49-10.64,4-21.45,7.58-32.38,10.74s-22.11,6.13-33.57,6.7c-11.09.55-21.21-1.9-31.39-6.14-.3-.13-.56.34-.32.55,16.86,14.59,43.37,8.45,62.62,3.1C202.46,152.84,214.14,148.94,225.63,144.54Z"/><path class="cls-2" d="M314,210a6.75,6.75,0,0,0-.44-.65,20.69,20.69,0,0,0-11.82-7.81,17.56,17.56,0,0,1,2.82-2.33,18.47,18.47,0,0,1,4.81-2.17h0l.72-.22a6.55,6.55,0,0,0-.56-1c-1.85-2.77-5.55-4.37-8.91-4.59l-.63,0c-.28,0-.57,0-.85,0a12.09,12.09,0,0,0-8.56,4.45,28.41,28.41,0,0,0-3.66-.68,16.65,16.65,0,0,1,6.06-5.48,22.92,22.92,0,0,1,7.07-2l1-.15h0a4.21,4.21,0,0,1,.17-.94h-.06a56.57,56.57,0,0,1,5.08-15.92c1.11-2.31,2.3-5.47.12-7.6-3.41-3.31-10.43,0-13.49,4-3.32-1-7-1-9.78,1.28-2.58,2.14-2.82,5.11-1.92,7.9-3.66,2.89-3.62,9.81-2.95,14.06a30.88,30.88,0,0,0,1,4.18s0,0,0,.06c.06.2.11.4.17.6l.13.39a31.2,31.2,0,0,0,5.11,9.37c2,7,7.28,12.17,12.08,17.62a10.65,10.65,0,0,0-1.61,1,14.13,14.13,0,0,0-5,7.67c-4,.55-6.86,4.8-8.91,7.94-4,6-7.4,11.23-12.91,15.13l-.8.55.94.85c3.71,3,9.18,3.88,14,2.64.45,2.46.53,4.92.75,7.39l.11,1.09,1-.5a26.18,26.18,0,0,0,3.69-2.66c1.25-1,2.45-2.14,3.75-3.12a11.63,11.63,0,0,0,.9.77,14.41,14.41,0,0,0,7.85,2.89,9,9,0,0,0,2.5-.24l-.92-1.84a44.65,44.65,0,0,1-2.46-5.83c-1.54-4.73-1.2-8.92-1.06-13.73.1-3.26-.46-7.22-2.85-9.53a8.78,8.78,0,0,1,2.11-4.48,3.4,3.4,0,0,1,2.85-1.1c.1.15.21.29.31.43,3.57,5.05,4.44,9.91,3.73,16-.62,5.25-1.57,10.3-.13,15.51.81,2.95,5,1.66,4.49-1.24-1.72-10.54,4-20.7-.79-31-2.74-5.89-7.61-10.4-11.52-15.45l.7.12a33.2,33.2,0,0,0,15.76-1.31Z"/><path class="cls-2" d="M304.85,186.89l-.09.42.86.35c.45.19.9.4,1.34.62s.61.32.9.49l1.17.76c.14-.2.29-.39.43-.57,2.07-2.58,5-3.59,8.47-4.22.77-.14,1.73-.26,2.64-.49a11.93,11.93,0,0,0-1.36,2.72,30,30,0,0,1-5.43,8.58c-.18.21-.38.42-.57.62l0,.16h0a10.85,10.85,0,0,1,.29,1.87,26.77,26.77,0,0,1-.16,3.11v.1l1.24-1h0a36,36,0,0,1,14-6.34l1.29-.28,0-.32a20.14,20.14,0,0,1,.67-5,33.68,33.68,0,0,1,2.22-4.65,4.67,4.67,0,0,0,.26-.56l-1.06-.22c-2.79-.54-6.41-.93-9-.28a2.32,2.32,0,0,0,.31-.46c1.44-3-1.7-5.91-4.6-7.46a12.17,12.17,0,0,1,.92-2.66,12.94,12.94,0,0,1,1.78-2.61l.38-.44-.51-.33C312.89,163.55,306.84,177.61,304.85,186.89Z"/><path class="cls-2" d="M318.52,201.5a5.16,5.16,0,0,0-2.17,4.15c.1,1.36,1.15,2.28,1.68,3.45a7.8,7.8,0,0,1,.35,6.43,4.9,4.9,0,0,1-.31.66l.47.09c10.15,1.67,18.07-9.88,15.24-19.27l-.09-.3c-.46,0-.93,0-1.4,0A21.92,21.92,0,0,0,318.52,201.5Z"/></g></g></svg>